<?xml version="1.0" standalone="no"?>
<!DOCTYPE svg PUBLIC "-//W3C//DTD SVG 20010904//EN"
 "http://www.w3.org/TR/2001/REC-SVG-20010904/DTD/svg10.dtd">
<svg version="1.0" xmlns="http://www.w3.org/2000/svg"
 width="610.000000pt" height="347.000000pt" viewBox="0 0 610.000000 347.000000"
 preserveAspectRatio="xMidYMid meet">
<metadata>
Created by potrace 1.15, written by Peter Selinger 2001-2017
</metadata>
<g transform="translate(0.000000,347.000000) scale(0.100000,-0.100000)"
fill="#ff0000" stroke="none">
<path d="M5357 3352 c-10 -2 -14 -8 -10 -15 5 -8 2 -8 -9 1 -9 7 -36 11 -73 8
-46 -3 -60 -7 -66 -22 -7 -18 -8 -18 -8 0 -1 19 1 19 -121 6 -3 0 1 -4 7 -8 9
-6 4 -15 -17 -34 -22 -19 -30 -22 -34 -12 -3 8 5 23 17 35 l22 21 -78 -4 c-43
-2 -81 -8 -85 -14 -10 -15 -40 -25 -47 -14 -3 5 3 11 12 14 10 3 -13 3 -52 0
-38 -4 -75 -6 -81 -7 -6 0 -9 -8 -7 -17 3 -10 -5 -21 -22 -28 -27 -13 -45 -9
-45 10 0 7 4 7 13 0 8 -7 18 -7 27 -2 12 8 11 10 -5 10 -16 0 -17 2 -5 10 8 5
11 12 8 15 -11 11 -69 -28 -63 -43 2 -7 0 -10 -5 -7 -6 4 -9 14 -8 23 2 13 -6
17 -37 19 -54 2 -110 -8 -95 -17 8 -5 7 -9 -5 -14 -25 -9 -28 -8 -21 10 6 15
-1 16 -66 10 -40 -4 -84 -7 -97 -7 -14 1 -28 -5 -33 -11 -6 -10 -10 -10 -18 2
-6 9 -13 11 -17 5 -5 -5 -35 -10 -68 -11 -88 -1 -327 -15 -350 -21 -11 -2 -48
-4 -82 -3 -33 0 -64 -3 -67 -8 -3 -6 -29 -8 -56 -5 -34 3 -56 0 -67 -9 -9 -7
-14 -8 -11 -3 4 6 -24 9 -79 7 -72 -3 -84 -6 -79 -19 5 -13 4 -14 -8 -3 -12 9
-42 10 -123 4 -105 -7 -122 -9 -133 -13 -3 0 -59 -3 -125 -6 -66 -2 -140 -6
-165 -9 -25 -3 -117 -10 -205 -16 -88 -6 -180 -13 -205 -15 -25 -2 -85 -7
-135 -11 -50 -3 -93 -11 -97 -17 -6 -9 -8 -9 -8 1 0 6 -12 12 -27 12 -22 0
-25 -2 -13 -10 13 -8 12 -10 -2 -10 -10 0 -18 4 -18 9 0 15 -74 0 -88 -18 -10
-14 -11 -14 -7 -1 4 12 -1 16 -17 15 -13 0 -29 -4 -35 -8 -7 -5 -13 -4 -13 0
0 13 -152 -4 -160 -17 -6 -9 -9 -9 -15 0 -5 8 -25 10 -64 6 -31 -3 -102 -8
-158 -12 -57 -4 -100 -10 -97 -15 3 -5 -5 -9 -18 -9 -19 0 -20 2 -8 11 11 7
-4 8 -50 4 -36 -4 -84 -7 -107 -8 -30 -1 -43 -6 -43 -15 0 -11 -3 -12 -13 -4
-8 7 -39 10 -78 7 -35 -3 -107 -7 -159 -10 -52 -2 -120 -8 -150 -12 -30 -4
-58 -6 -61 -5 -3 0 -4 -10 -1 -23 2 -13 9 -23 14 -22 6 1 13 -4 15 -10 3 -9
-4 -12 -20 -11 -18 2 -23 7 -21 25 3 29 -14 42 -51 37 -16 -2 -60 -5 -97 -5
-38 -1 -68 -5 -68 -8 0 -4 -25 -5 -55 -3 -31 2 -72 1 -92 -3 -31 -6 -34 -8
-20 -16 21 -12 22 -29 3 -29 -8 0 -18 9 -21 21 -6 18 -12 20 -39 15 -17 -3
-37 -14 -43 -23 -7 -9 -13 -14 -13 -10 0 20 -44 -19 -57 -50 -12 -30 -12 -37
-1 -44 10 -7 9 -9 -5 -9 -10 0 -16 -4 -13 -8 2 -4 7 -62 11 -127 3 -66 8 -133
11 -150 2 -16 5 -51 5 -77 1 -38 4 -46 18 -42 14 5 14 4 1 -4 -12 -8 -14 -26
-8 -99 4 -48 8 -110 9 -136 1 -42 3 -47 20 -42 15 5 19 1 18 -17 0 -18 -2 -20
-7 -6 -5 12 -11 15 -21 8 -12 -7 -12 -12 3 -35 10 -15 14 -25 9 -22 -5 4 -10
-1 -10 -9 0 -8 5 -13 12 -11 6 3 11 -4 11 -14 0 -22 -12 -25 -19 -6 -3 6 -6
-5 -6 -25 -1 -20 3 -39 8 -43 5 -3 7 -22 4 -42 -5 -29 -3 -35 8 -28 12 7 12 6
1 -7 -8 -10 -11 -30 -8 -50 3 -18 8 -91 12 -163 3 -71 10 -134 14 -139 5 -5 6
-15 3 -22 -3 -8 0 -14 6 -14 6 0 11 -8 11 -17 0 -15 -2 -16 -10 -3 -7 11 -10
5 -10 -23 0 -23 4 -36 10 -32 6 3 10 1 10 -4 0 -6 -3 -11 -7 -11 -9 0 17 -422
26 -430 3 -3 7 -41 7 -85 1 -44 5 -132 10 -195 4 -63 8 -125 9 -137 0 -15 3
-18 12 -12 7 7 14 6 19 -2 4 -7 3 -9 -3 -6 -6 4 -13 0 -17 -8 -3 -10 1 -15 14
-15 10 0 22 -5 26 -11 5 -8 -1 -10 -21 -7 l-27 6 7 -102 c4 -55 9 -112 12
-126 2 -14 4 -34 4 -46 -1 -30 58 -93 100 -107 24 -8 68 -10 140 -5 57 4 151
9 209 13 58 3 157 11 220 16 63 6 121 11 128 12 7 0 10 7 7 16 -5 13 -4 13 12
-1 14 -12 36 -14 103 -11 47 2 91 6 99 9 8 3 51 6 95 8 83 4 118 10 138 22 7
5 8 3 3 -6 -6 -9 2 -10 36 -4 24 4 55 7 69 6 49 -3 275 19 285 29 5 5 14 9 20
9 5 0 3 -5 -5 -10 -19 -12 -12 -12 148 0 67 5 164 12 215 15 51 3 117 8 147
12 30 3 76 7 101 8 51 3 202 13 299 20 219 16 363 26 415 30 270 18 264 18
276 36 7 12 9 12 9 0 0 -12 23 -13 137 -7 75 4 166 11 202 15 36 5 98 10 136
10 82 1 158 11 165 21 3 4 16 10 30 14 l25 7 -25 -15 c-23 -15 -20 -15 55 -10
44 3 87 8 95 11 8 4 49 7 90 7 43 1 75 5 75 11 0 6 10 20 22 32 20 20 21 20
26 3 3 -11 0 -17 -7 -14 -6 2 -12 -4 -13 -14 -1 -10 5 -19 13 -19 8 0 14 4 14
9 0 5 4 7 9 4 5 -4 11 -1 13 6 5 13 38 20 38 8 0 -5 -6 -11 -12 -14 -7 -3 16
-3 52 0 51 5 70 12 87 30 27 29 33 30 33 5 0 -11 -8 -22 -17 -24 -10 -3 2 -4
27 -3 33 2 44 6 42 17 -3 11 -1 12 9 1 43 -41 153 30 117 76 -12 15 -11 16 4
4 16 -13 21 -52 6 -52 -4 0 -12 -9 -18 -19 -8 -16 -7 -19 8 -16 9 2 39 4 65 4
27 1 46 4 44 9 -3 4 -1 16 4 27 7 19 8 19 8 -2 1 -19 7 -21 46 -21 25 0 43 4
39 9 -3 5 2 9 11 9 9 0 13 -4 10 -10 -4 -6 16 -8 52 -5 32 2 97 7 146 10 55 4
87 11 87 18 0 8 3 7 9 -2 6 -9 16 -11 32 -5 13 4 39 6 56 5 27 -1 32 1 26 16
-6 16 -5 16 10 4 14 -11 21 -11 42 3 14 9 25 23 25 32 0 8 4 13 9 10 12 -8 44
62 37 80 -3 7 -11 12 -18 10 -7 -1 -10 -1 -5 1 4 3 7 11 7 19 0 8 5 14 10 14
20 0 10 35 -17 57 -14 13 -22 23 -17 23 6 0 16 -6 22 -12 10 -10 12 0 8 47 -2
33 -5 77 -5 98 -1 23 -5 36 -11 32 -5 -3 -10 -2 -10 4 0 5 6 12 13 14 6 3 3 6
-8 6 -16 1 -17 3 -6 10 9 6 13 23 12 48 -6 95 -9 138 -10 138 -1 0 -11 146
-14 202 0 10 -4 10 -14 1 -10 -8 -17 -8 -26 2 -9 10 -9 11 1 6 22 -13 42 18
33 50 -4 16 -6 35 -3 43 2 7 -2 17 -9 22 -8 5 -9 9 -3 9 6 0 11 14 11 30 0 18
-6 30 -14 30 -7 0 -13 5 -13 11 0 5 5 7 10 4 6 -3 10 4 10 17 0 17 -3 19 -9 9
-5 -8 -11 -9 -15 -3 -3 5 1 13 10 16 11 4 14 17 12 51 -3 24 -8 48 -13 52 -4
5 -5 2 -1 -4 12 -22 -8 -14 -22 7 -7 12 -17 18 -21 15 -12 -7 -8 22 4 32 4 4
5 3 2 -3 -6 -11 12 -24 34 -24 14 0 11 21 -5 39 -11 12 -12 21 -5 31 9 13 10
12 5 -2 -3 -10 0 -20 5 -24 7 -4 9 14 5 52 -3 33 -8 101 -12 152 -3 52 -8 106
-10 120 -6 45 -13 174 -13 242 0 36 -4 75 -8 87 -7 17 -12 19 -33 10 -20 -8
-22 -11 -7 -14 9 -3 17 -9 17 -14 0 -6 -5 -7 -12 -3 -7 5 -9 2 -5 -9 3 -9 1
-18 -6 -21 -8 -3 -8 -5 2 -5 11 -1 11 -4 0 -18 -12 -15 -12 -16 4 -10 9 3 17
2 17 -4 0 -6 5 -7 10 -4 6 3 10 2 10 -3 0 -6 -7 -13 -16 -16 -8 -3 -12 -2 -9
4 3 6 1 10 -4 10 -6 0 -11 -5 -11 -11 0 -5 -5 -7 -10 -4 -6 4 -8 10 -5 15 3 4
-1 11 -7 13 -10 4 -10 6 0 6 17 1 15 21 -3 21 -8 0 -15 7 -15 15 0 8 5 15 11
15 5 0 8 4 4 9 -7 12 45 62 57 55 4 -3 8 0 8 6 0 6 -8 10 -17 9 -33 -3 -34 1
-11 24 19 18 23 31 20 73 -2 43 -7 53 -24 57 -17 5 -18 8 -7 20 12 13 15 13
21 -2 4 -10 7 -3 7 19 0 19 -3 30 -7 24 -4 -7 -20 -12 -36 -12 -15 0 -24 3
-19 7 5 3 14 17 21 31 7 14 10 17 8 8 -3 -10 0 -18 7 -18 7 0 13 17 14 45 1
26 -2 45 -9 45 -5 0 -8 -7 -4 -15 7 -18 2 -19 -26 -4 -21 11 -21 12 -3 25 11
8 13 14 6 14 -7 0 -10 4 -6 10 3 5 12 7 20 3 8 -3 15 0 15 6 0 6 -6 11 -12 11
-9 0 -8 4 2 10 13 9 13 11 0 20 -8 5 -10 10 -4 10 6 0 11 7 11 15 0 8 -4 15
-9 15 -4 0 -8 5 -8 11 0 5 5 7 10 4 6 -3 10 -1 10 4 0 6 -9 11 -19 11 -17 0
-33 20 -35 44 -1 5 -7 11 -14 14 -8 2 -10 -2 -5 -15 6 -17 6 -17 -10 -1 -19
18 -23 33 -7 23 6 -3 10 -1 10 5 0 6 4 8 10 5 5 -3 15 3 22 15 7 11 19 20 26
20 14 0 12 31 -3 42 -7 5 -7 8 0 8 6 0 9 17 7 40 -3 27 -8 38 -16 33 -6 -4 -4
2 4 12 13 17 13 18 -1 13 -14 -6 -15 -3 -6 21 8 23 7 33 -9 54 -36 48 -134 88
-134 55 0 -10 -2 -10 -8 -1 -7 12 -90 15 -135 5z m-99 -104 c-2 -7 3 -12 10
-10 6 1 12 -2 12 -8 0 -5 -9 -10 -20 -10 -11 0 -20 -4 -20 -9 0 -9 154 -6 228
4 26 4 42 2 42 -4 0 -6 6 -8 14 -5 7 3 16 -2 19 -10 4 -9 3 -15 -1 -15 -25 4
-32 -2 -23 -18 5 -10 6 -40 4 -67 -4 -39 -3 -47 8 -41 11 6 11 5 3 -4 -13 -15
-6 -61 10 -61 6 0 4 -5 -4 -10 -10 -6 -11 -10 -2 -10 6 0 12 -5 12 -11 0 -5
-5 -7 -10 -4 -6 4 -10 -5 -8 -24 1 -17 5 -31 8 -31 4 0 5 -23 2 -52 -3 -41 0
-55 14 -65 10 -7 12 -13 6 -13 -8 0 -12 -23 -12 -74 0 -91 9 -138 24 -129 6 4
6 0 -2 -9 -8 -10 -11 -31 -7 -59 5 -41 14 -152 18 -244 2 -30 6 -39 17 -36 8
2 20 4 26 4 6 0 11 7 11 14 0 8 -6 12 -13 9 -8 -3 -15 -2 -18 2 -10 16 38 10
52 -6 12 -16 13 -16 8 0 -3 10 2 19 12 23 9 3 13 3 9 -1 -3 -4 3 -16 16 -27
l22 -19 -22 6 c-13 4 -31 3 -40 -3 -10 -6 -13 -11 -6 -11 6 0 10 -8 8 -17 -1
-10 2 -24 8 -31 8 -10 3 -12 -20 -10 -21 1 -29 6 -26 15 3 8 0 13 -7 11 -7 -2
-15 4 -17 12 -4 12 -3 12 5 1 6 -8 12 -9 16 -3 8 14 -8 24 -27 16 -11 -4 -14
-14 -10 -32 4 -15 7 -37 7 -49 1 -11 4 -19 9 -16 4 2 7 -1 7 -6 0 -6 -4 -11
-8 -11 -11 0 -3 -114 9 -118 14 -5 11 -32 -3 -32 -9 0 -8 -4 2 -10 13 -9 13
-11 0 -20 -8 -5 -10 -10 -5 -10 6 0 9 -21 9 -47 -1 -27 0 -43 3 -36 2 7 12 9
21 6 14 -5 14 -3 -3 18 -11 13 -16 21 -11 17 10 -8 36 9 36 23 0 5 -8 6 -17 3
-14 -5 -15 -4 -4 4 8 6 21 8 30 5 14 -4 14 -3 -1 9 -10 9 -13 19 -9 27 6 9 10
7 14 -9 3 -12 10 -19 16 -15 21 12 11 -6 -16 -32 -24 -21 -25 -25 -8 -21 11 2
25 -3 32 -12 16 -21 26 -7 25 35 -1 19 2 35 6 35 4 0 7 -18 7 -40 0 -45 -19
-59 -54 -41 -11 6 -22 11 -25 11 -5 0 1 -53 9 -81 4 -13 2 -19 -9 -19 -9 0
-16 5 -16 10 0 6 -4 10 -8 10 -4 0 -9 -16 -10 -35 -2 -23 2 -35 10 -35 9 0 10
-3 2 -8 -6 -4 -10 -18 -8 -32 1 -14 3 -33 3 -43 1 -10 15 -24 34 -33 l32 -15
-33 7 -33 6 5 -56 c6 -71 11 -79 38 -65 13 7 18 7 14 1 -3 -6 4 -18 16 -27
l23 -17 -25 7 c-14 4 -28 12 -31 17 -8 12 -22 -9 -24 -34 -1 -14 1 -15 12 -6
11 8 12 7 7 -6 -3 -9 -11 -16 -18 -17 -6 0 0 -5 14 -11 21 -9 22 -12 8 -15
-10 -3 -18 -9 -18 -14 0 -6 5 -7 10 -4 6 3 10 1 10 -4 0 -6 -4 -11 -8 -11 -12
0 -14 -68 -2 -90 6 -11 15 -18 21 -15 5 4 9 1 9 -4 0 -6 -8 -11 -17 -11 -15 0
-15 -2 -4 -9 8 -5 16 -20 18 -33 2 -17 1 -19 -6 -8 -5 8 -7 18 -5 22 3 4 1 8
-3 8 -5 0 -9 -22 -9 -50 0 -27 3 -50 8 -50 5 0 6 5 2 12 -5 7 -3 8 6 3 10 -6
12 -4 7 7 -6 16 10 38 28 38 5 0 2 -5 -8 -11 -9 -6 -15 -15 -11 -20 3 -6 -5
-22 -17 -36 -16 -17 -19 -24 -8 -21 9 4 16 1 16 -8 0 -8 -4 -14 -9 -14 -9 0
-11 -90 -2 -114 3 -8 12 -12 20 -9 9 3 14 -1 14 -12 0 -10 -5 -15 -13 -12 -7
3 -13 -3 -14 -13 -1 -13 4 -16 20 -12 19 5 19 4 6 -10 -7 -9 -16 -15 -19 -13
-3 2 -4 -11 -3 -28 2 -50 3 -121 1 -137 -1 -12 -12 -14 -51 -11 -34 2 -52 -1
-58 -10 -6 -10 -9 -11 -9 -2 0 8 -9 11 -22 9 -13 -3 -27 -5 -31 -5 -5 -1 -5
-6 -1 -12 4 -7 -1 -7 -16 1 -29 16 -133 6 -163 -15 -12 -8 -26 -15 -32 -15 -5
1 1 7 14 14 l24 14 -26 0 c-15 0 -27 -4 -27 -8 0 -4 -11 -11 -24 -14 -13 -3
-26 -12 -29 -20 -4 -11 -1 -13 11 -10 15 5 15 4 -1 -9 -16 -14 -16 -15 5 -20
25 -7 21 -16 -9 -21 -14 -3 -19 2 -21 21 -3 35 -9 42 -32 36 -11 -3 -20 -1
-20 5 0 5 13 9 29 8 17 -1 40 6 53 17 13 10 17 16 9 12 -7 -4 -57 -9 -110 -11
-137 -5 -202 -13 -220 -27 -12 -9 -13 -9 -7 1 5 9 -5 12 -38 12 -26 0 -46 -5
-46 -11 0 -5 -5 -7 -12 -3 -7 4 -8 3 -4 -5 4 -6 12 -9 17 -6 5 4 9 1 9 -4 0
-6 -8 -11 -17 -12 -13 0 -11 -3 7 -10 19 -8 22 -12 10 -19 -15 -10 -39 14 -40
40 0 12 -14 16 -60 18 -34 1 -66 -1 -73 -5 -6 -4 -30 -6 -54 -4 -36 2 -42 0
-37 -13 3 -9 10 -16 16 -16 5 0 6 -4 3 -10 -3 -5 -11 -10 -16 -10 -6 0 -8 4
-4 9 7 12 -35 42 -47 35 -9 -6 -84 -12 -231 -18 -57 -2 -103 -9 -112 -16 -11
-9 -15 -9 -15 -1 0 14 -112 5 -142 -11 -13 -6 -18 -5 -18 4 0 8 -3 9 -8 3 -4
-5 -43 -10 -87 -11 -130 -2 -196 -7 -201 -16 -3 -4 -13 -4 -23 2 -10 5 -21 7
-24 4 -3 -3 -27 -6 -54 -7 -42 -2 -48 -5 -45 -22 2 -19 2 -19 -12 -2 -12 15
-26 17 -107 13 -52 -2 -115 -5 -141 -5 -36 -1 -48 -5 -48 -16 0 -8 -4 -15 -10
-15 -5 0 -10 5 -10 11 0 8 -24 9 -77 5 -43 -3 -93 -5 -110 -6 -18 0 -33 -5
-33 -11 0 -6 -7 -18 -16 -26 -12 -13 -15 -13 -14 -2 5 31 0 40 -18 35 -10 -3
-58 -8 -107 -10 -179 -9 -270 -19 -277 -30 -5 -8 -8 -7 -8 2 0 9 -10 11 -32 8
-32 -5 -64 -8 -298 -23 -63 -4 -118 -8 -122 -9 -5 -1 -31 -2 -59 -3 -37 -1
-48 -4 -43 -13 6 -10 5 -10 -8 -1 -8 7 -17 11 -19 9 -2 -2 -67 -7 -144 -11
-77 -4 -167 -11 -200 -16 -33 -5 -89 -9 -123 -9 -43 1 -62 -2 -57 -9 3 -6 -1
-11 -9 -11 -9 0 -16 5 -16 10 0 6 -9 10 -21 10 -11 0 -18 -3 -16 -7 3 -5 -27
-7 -66 -7 -40 1 -108 -2 -152 -7 -44 -5 -117 -10 -162 -11 -55 -2 -84 -7 -88
-16 -2 -6 -10 -12 -17 -12 -9 0 -8 3 2 10 20 13 -26 13 -150 -1 -52 -5 -117
-10 -145 -10 -75 0 -88 -6 -81 -37 5 -24 5 -25 -7 -8 -6 10 -20 26 -30 35 -12
11 -17 30 -17 64 0 26 -3 46 -8 44 -4 -3 -7 27 -6 66 0 40 -3 115 -7 167 -5
52 -11 129 -14 171 -9 106 -9 107 -29 122 -11 8 -16 20 -13 28 4 10 6 9 6 -3
1 -10 7 -18 14 -18 10 0 13 11 11 33 -1 17 -4 49 -5 69 -2 24 -8 38 -17 38
-10 0 -10 4 3 16 10 11 14 26 11 43 -6 30 -19 187 -20 244 -1 38 -3 40 -46 41
-17 1 -26 7 -28 21 -2 18 -2 19 8 2 6 -9 16 -15 22 -11 7 4 6 9 -2 14 -8 5 -7
9 5 13 9 4 14 3 11 -2 -3 -5 1 -14 9 -21 13 -11 15 -7 15 24 0 35 -12 47 -25
26 -3 -5 -12 -10 -18 -10 -8 0 -7 3 2 9 11 7 10 10 -5 14 -18 5 -18 6 1 5 38
-1 43 2 38 22 -3 11 -9 17 -14 14 -5 -3 -9 0 -9 5 0 6 5 11 10 11 6 0 10 20
10 45 0 27 -5 45 -11 45 -8 0 -8 5 1 15 10 13 9 15 -9 15 -11 0 -21 5 -21 11
0 6 7 9 15 5 12 -4 15 6 15 62 0 74 -8 95 -35 90 -10 -2 -20 2 -22 8 -2 7 5
10 22 7 16 -4 25 -1 25 7 0 7 -6 10 -13 7 -8 -3 -14 3 -14 14 -1 10 3 19 8 19
6 0 7 -5 3 -12 -4 -7 -3 -8 4 -4 20 12 15 66 -5 67 -11 0 -13 3 -5 6 18 7 15
20 -9 26 -18 5 -19 8 -7 29 7 13 15 25 18 28 9 8 8 60 0 60 -5 0 -6 9 -3 21 4
12 0 25 -8 30 -9 6 -10 12 -4 17 6 4 9 21 8 37 -2 17 -3 61 -4 100 0 38 -3 74
-7 79 -3 5 -5 30 -5 55 1 25 -4 52 -11 60 -8 11 -8 13 0 8 8 -5 10 7 7 41 -6
61 -11 75 -23 67 -5 -3 -10 -1 -10 4 0 6 7 11 15 11 8 0 15 5 15 11 0 5 -4 8
-9 4 -5 -3 -13 -1 -16 5 -4 6 -1 9 7 8 7 -2 12 2 12 7 -1 6 -4 49 -8 98 -4 65
-3 87 7 88 28 2 50 8 60 18 6 6 18 11 27 11 13 0 13 -2 0 -11 -11 -7 0 -9 40
-5 30 3 79 5 108 6 45 0 54 3 62 23 5 12 9 16 9 8 1 -8 7 -11 17 -7 8 3 13 2
9 -3 -3 -5 22 -9 55 -9 54 1 60 3 61 22 0 12 3 15 6 8 3 -8 11 -5 24 10 l19
23 -4 -27 c-4 -26 -2 -28 30 -28 19 0 33 3 31 8 -3 4 15 5 40 3 25 -2 43 1 40
6 -3 5 3 9 13 9 10 0 16 -4 13 -9 -3 -5 19 -6 48 -3 30 3 81 8 114 12 32 3 66
10 74 17 12 9 13 9 7 0 -4 -8 -2 -13 8 -13 22 0 28 16 11 30 -12 10 -19 10
-33 -1 -16 -12 -16 -12 -1 5 14 15 21 16 38 7 11 -7 21 -19 21 -28 0 -13 10
-14 77 -8 43 4 80 11 81 16 2 6 10 4 19 -2 10 -9 20 -10 31 -3 9 5 49 9 89 9
71 0 72 0 67 25 -4 24 -4 24 5 3 9 -21 15 -22 92 -19 54 3 84 8 90 17 6 10 9
11 9 2 0 -7 7 -13 15 -13 8 0 15 5 15 11 0 5 -4 7 -10 4 -6 -4 -7 1 -3 11 6
16 7 16 18 0 16 -22 97 -23 89 -1 -8 20 6 19 35 -2 19 -13 27 -14 43 -4 16 10
19 10 12 0 -5 -9 -2 -10 11 -5 11 4 67 9 125 12 58 3 114 7 125 9 11 2 27 4
36 4 10 1 16 9 15 19 0 9 5 16 12 14 10 -2 12 4 7 20 -5 21 -5 21 6 5 8 -14 8
-22 0 -30 -18 -18 -13 -31 6 -16 11 10 14 10 9 2 -5 -10 6 -12 48 -10 31 1 56
4 56 7 0 3 24 5 53 5 87 1 187 9 187 16 0 3 11 4 25 1 15 -2 25 0 25 7 0 6 -5
11 -11 11 -5 0 -7 5 -3 12 5 8 11 5 17 -10 11 -24 36 -29 56 -9 11 10 12 9 6
-1 -6 -11 1 -13 31 -8 22 3 56 5 77 6 28 0 37 4 37 18 0 14 2 14 9 3 11 -16
124 -17 129 -1 2 6 8 7 14 4 20 -13 53 -9 65 6 9 10 12 11 13 3 0 -9 17 -13
51 -13 27 0 48 3 46 8 -3 4 32 7 77 8 143 2 190 7 214 22 15 10 21 21 17 31
-5 13 -4 13 6 4 10 -10 9 -17 -7 -34 -10 -13 -14 -20 -8 -16 5 3 36 7 67 8 31
1 57 6 57 10 0 5 6 6 13 3 8 -3 13 3 13 16 0 11 -7 20 -16 20 -12 0 -13 2 -1
9 18 12 39 -8 33 -31 -4 -15 2 -18 37 -18 26 0 41 5 42 13 0 8 2 8 5 1 3 -6
15 -9 27 -7 48 7 285 24 330 23 26 0 47 3 47 8 0 5 32 8 70 7 62 -2 91 6 58
17 -7 3 -5 7 6 11 9 4 15 3 12 -1 -8 -13 11 -35 24 -27 9 6 9 10 -1 17 -10 7
-8 8 6 2 33 -12 125 -15 125 -4 0 7 6 7 19 1 10 -6 20 -8 22 -6 3 2 28 5 57 6
28 2 52 6 52 9 0 4 12 5 26 2 20 -3 25 -2 19 7 -5 9 -1 9 14 -1 17 -10 25 -10
41 -1 10 7 21 9 24 4 5 -8 110 -4 136 6 8 3 38 5 65 4 37 -1 46 1 35 8 -13 9
-13 11 3 11 9 0 17 -4 17 -9 0 -6 16 -9 35 -8 19 1 35 5 35 9 0 4 6 5 14 2 9
-3 17 6 24 25 11 30 24 43 20 19z"/>
<path d="M5133 3012 c-13 -2 -23 -8 -23 -13 0 -5 6 -8 12 -6 7 1 13 -9 15 -23
1 -14 -1 -17 -3 -8 -4 14 -9 16 -25 8 -13 -7 -19 -7 -19 0 0 5 4 10 10 10 5 0
7 7 3 15 -4 13 -17 15 -67 10 -33 -4 -76 -6 -95 -5 -54 2 -91 -9 -84 -26 3 -8
-1 -14 -10 -14 -8 0 -17 7 -20 15 -5 11 -18 13 -59 9 -29 -3 -70 -5 -90 -4
-37 1 -38 0 -38 -34 0 -21 6 -38 16 -44 13 -7 13 -10 1 -20 -21 -18 -10 -71
17 -76 11 -2 57 -12 101 -22 44 -10 86 -17 93 -15 6 1 12 -3 12 -9 0 -5 5 -10
10 -10 6 0 18 -8 29 -19 13 -13 27 -17 46 -13 20 3 26 1 21 -7 -4 -6 -1 -11 8
-11 9 0 16 7 16 15 0 8 -4 15 -10 15 -5 0 -10 5 -10 11 0 5 5 7 12 3 8 -5 9
-1 5 12 -7 18 -6 18 6 2 8 -10 16 -16 19 -13 2 3 5 -2 5 -10 0 -8 -4 -15 -9
-15 -5 0 -4 -9 2 -19 13 -25 13 -42 0 -19 -6 10 -18 14 -30 11 -18 -5 -13 -13
40 -66 33 -33 60 -64 60 -70 0 -16 37 -57 45 -49 5 4 5 1 1 -6 -10 -17 13 -74
27 -65 7 4 8 0 4 -11 -8 -21 10 -59 24 -51 5 4 9 -1 9 -9 0 -19 5 -20 31 -6
13 7 19 7 19 0 0 -5 -5 -10 -12 -10 -6 0 -8 -3 -5 -6 4 -4 13 -1 21 5 8 7 20
10 25 6 6 -3 19 3 31 15 15 15 20 33 20 70 0 28 -3 50 -7 50 -5 0 -7 34 -6 75
1 41 -2 77 -7 80 -5 3 -7 20 -3 37 5 25 3 29 -8 23 -12 -8 -12 -6 0 8 16 20 8
134 -11 152 -8 7 -9 6 -3 -4 6 -10 2 -12 -14 -6 -12 4 -21 2 -21 -4 0 -6 5
-11 10 -11 14 0 12 -27 -2 -33 -10 -4 -9 -8 2 -17 13 -10 12 -11 -3 -6 -10 3
-23 6 -29 6 -6 0 -7 11 -3 28 4 15 8 32 8 39 0 7 4 10 9 7 4 -3 8 0 8 5 0 6 3
10 8 10 21 -4 42 2 42 11 0 6 -11 8 -25 4 -18 -4 -25 -2 -25 9 0 8 9 17 20 20
11 3 20 10 20 17 0 6 -6 8 -12 4 -10 -6 -10 -4 0 7 6 7 12 26 12 41 0 21 -5
28 -19 28 -21 0 -36 -26 -21 -35 19 -11 10 -25 -14 -23 -14 1 -23 5 -22 8 2 3
0 14 -3 24 -7 19 -38 25 -88 18z"/>
<path d="M4468 2965 c-2 -3 -46 -6 -96 -7 -51 -1 -92 -5 -92 -8 0 -3 -32 -6
-72 -7 -46 -1 -74 -6 -79 -15 -7 -10 -9 -10 -9 0 0 6 -7 12 -16 12 -10 0 -14
-6 -11 -14 7 -17 -11 -36 -35 -36 -11 0 -18 7 -18 18 0 12 3 13 8 5 5 -9 11
-6 21 9 12 19 11 20 -11 15 -12 -4 -36 -7 -51 -7 -16 0 -26 -4 -22 -9 3 -5 0
-13 -6 -17 -8 -4 -9 -3 -5 4 9 15 -54 26 -96 16 -18 -4 -58 -6 -88 -5 -44 2
-53 0 -42 -10 6 -7 12 -18 12 -24 0 -5 -5 -2 -11 8 -19 33 -94 13 -127 -34 -8
-12 -10 -19 -4 -15 7 4 12 1 12 -8 0 -8 5 -18 12 -22 8 -5 9 -2 5 9 -7 18 8
24 18 8 3 -5 -6 -18 -20 -29 -21 -17 -23 -21 -10 -32 8 -7 15 -9 15 -6 0 4 7
0 16 -9 9 -8 36 -21 60 -27 24 -7 44 -16 44 -20 0 -4 5 -8 10 -8 6 0 10 7 10
15 0 8 -4 15 -10 15 -5 0 -10 5 -10 11 0 5 4 8 9 5 5 -4 11 -3 14 1 2 5 2 2 0
-6 -2 -8 2 -11 12 -7 8 3 15 1 15 -4 0 -6 -5 -10 -12 -10 -9 0 -9 -3 0 -12 7
-7 12 -19 12 -27 0 -11 -3 -11 -13 4 -20 27 -26 7 -16 -55 5 -30 10 -74 10
-97 1 -45 8 -53 29 -28 9 11 16 12 25 5 6 -5 16 -6 20 -2 5 4 5 1 1 -6 -5 -7
-14 -11 -22 -8 -9 3 -11 0 -7 -11 5 -12 2 -15 -13 -11 -17 4 -20 -1 -22 -45
-3 -45 -1 -49 16 -45 11 3 26 2 33 -3 10 -6 3 -9 -19 -9 -31 0 -33 -1 -28 -32
3 -18 8 -78 11 -132 3 -54 10 -106 16 -115 9 -14 10 -14 5 1 -3 10 0 20 6 24
6 4 8 3 4 -4 -3 -6 -1 -14 5 -17 6 -5 3 -13 -11 -22 -18 -13 -21 -22 -15 -52
3 -20 14 -42 23 -50 16 -13 16 -13 -1 -7 -18 6 -18 1 -12 -66 4 -40 12 -76 19
-80 8 -6 7 -8 -2 -8 -16 0 -8 -70 10 -81 11 -7 11 -9 0 -9 -9 0 -12 -12 -10
-37 2 -24 8 -37 16 -36 6 2 12 -2 12 -7 0 -6 -4 -10 -10 -10 -17 0 -11 -158 7
-175 8 -8 10 -15 5 -15 -16 0 -11 -109 5 -126 8 -8 11 -14 6 -14 -4 0 -8 -26
-9 -58 -1 -44 3 -61 18 -73 17 -15 17 -17 2 -23 -15 -6 -16 -17 -10 -89 4 -45
8 -91 10 -102 2 -11 -1 -25 -6 -32 -5 -7 -6 -18 -2 -24 4 -7 3 -9 -4 -5 -5 3
-29 -12 -52 -34 -23 -23 -40 -34 -37 -25 9 22 -9 18 -33 -7 -27 -29 -25 -40 8
-60 18 -12 22 -18 10 -18 -9 0 -18 6 -21 13 -8 21 -19 0 -12 -23 4 -13 12 -19
21 -16 8 3 14 -1 14 -10 0 -8 5 -12 10 -9 6 3 10 1 10 -6 0 -15 203 -4 208 11
2 5 8 10 13 10 6 0 7 -4 4 -10 -9 -14 126 -2 144 13 10 9 15 9 18 1 4 -12 60
-11 173 3 53 6 102 9 200 12 61 2 78 17 72 64 -2 20 -8 37 -14 37 -5 0 -6 -4
-3 -10 3 -5 2 -10 -4 -10 -18 0 -17 35 2 52 12 11 16 22 11 30 -5 7 -7 24 -5
37 1 13 -3 28 -11 32 -10 7 -10 9 0 9 8 0 12 12 10 35 -1 19 -6 35 -10 35 -4
0 -12 9 -18 21 -9 16 -8 24 4 38 9 10 16 23 16 29 0 10 -37 28 -52 24 -4 -1
-6 7 -5 18 1 10 5 16 11 13 5 -4 7 1 3 11 -4 11 -3 15 4 11 6 -4 8 -13 5 -20
-5 -13 20 -42 28 -34 2 2 2 25 -1 51 -4 32 -9 45 -17 41 -6 -4 -6 0 1 9 7 8
11 30 9 49 -2 19 -4 62 -5 97 -1 52 -4 62 -18 62 -14 0 -15 2 -5 9 10 6 12 25
8 72 -8 89 -8 89 -20 89 -6 0 -5 4 3 9 10 6 11 23 6 67 -4 33 -7 69 -7 81 0
13 -3 21 -7 18 -4 -2 -8 2 -8 10 0 8 4 12 9 9 4 -3 8 6 8 19 0 14 -7 27 -15
31 -17 6 -21 27 -4 23 20 -4 11 124 -9 141 -16 13 -16 13 0 8 13 -4 15 -1 11
12 -4 9 -11 20 -17 24 -7 5 -7 8 2 8 6 0 12 9 12 21 0 12 -5 19 -12 16 -7 -2
-12 -10 -11 -16 5 -19 -11 -12 -26 10 -10 18 -15 19 -22 8 -7 -11 -9 -11 -9 4
0 19 11 22 27 6 15 -15 53 -2 53 18 0 13 -3 13 -15 3 -13 -11 -14 -10 -9 5 5
12 4 16 -3 12 -6 -4 -13 0 -17 8 -3 8 0 17 6 21 6 4 8 3 5 -3 -4 -6 0 -14 9
-17 14 -6 15 4 9 86 -3 51 -7 125 -9 164 -2 74 -17 109 -43 100 -8 -3 -11 -1
-8 5 4 5 15 7 26 4 14 -5 19 -2 19 12 0 11 -6 25 -12 32 -10 11 -10 12 -1 7
10 -5 11 -1 5 16 -5 13 -7 37 -6 53 1 17 0 24 -3 18 -8 -21 -22 -15 -16 7 3
11 10 20 15 20 6 0 7 16 3 41 -4 22 -8 66 -9 97 -5 109 -4 106 -21 92 -13 -11
-14 -10 -9 4 6 16 2 21 -8 11z"/>
<path d="M3105 2870 c-38 -4 -76 -5 -82 -3 -7 3 -13 1 -13 -3 0 -5 -28 -9 -63
-9 -61 -1 -207 -9 -360 -22 -69 -5 -76 -8 -65 -22 11 -13 8 -12 -15 2 -19 12
-35 16 -50 11 -12 -5 -25 -7 -29 -6 -5 1 -8 -5 -8 -13 0 -8 -5 -15 -11 -15 -5
0 -8 4 -5 9 3 5 -2 12 -11 16 -10 3 -19 1 -21 -4 -2 -6 -7 -9 -11 -6 -5 2 -19
-7 -32 -21 -20 -21 -21 -27 -9 -34 13 -8 12 -10 -3 -10 -35 0 -2 -65 41 -81
19 -7 27 -5 38 8 12 17 13 17 8 -2 -4 -16 3 -25 31 -38 26 -12 37 -25 41 -47
4 -18 13 -30 22 -30 12 0 13 -3 4 -12 -15 -15 -16 -104 -2 -113 6 -4 8 -11 4
-16 -3 -5 0 -16 6 -24 10 -12 10 -15 1 -15 -9 0 -10 -24 -5 -92 4 -51 7 -101
6 -110 0 -10 5 -18 11 -18 9 0 9 -2 0 -8 -15 -10 7 -58 38 -84 12 -10 17 -18
12 -18 -14 0 -8 -51 8 -61 10 -6 7 -8 -13 -7 -18 2 -26 8 -25 19 1 10 4 16 8
13 4 -2 7 6 5 19 -3 28 -36 79 -36 56 0 -8 5 -20 12 -27 7 -7 8 -12 2 -12 -5
0 -8 -30 -6 -71 3 -60 7 -72 23 -76 10 -3 19 -9 19 -13 0 -5 -8 -6 -18 -4 -15
4 -17 -1 -14 -40 3 -31 9 -46 20 -49 15 -4 14 -5 -1 -6 -16 -1 -17 -8 -11 -63
4 -35 12 -66 18 -70 7 -5 7 -8 -3 -8 -11 0 -11 -3 0 -17 10 -11 10 -14 2 -9
-17 9 -17 -16 -1 -32 7 -7 30 -12 52 -12 21 0 37 -3 33 -6 -3 -4 -25 -6 -47
-6 l-42 1 7 -112 c4 -62 12 -118 19 -126 8 -11 8 -13 0 -8 -7 4 -11 -2 -11
-18 0 -31 13 -32 46 -2 14 12 23 18 19 13 -4 -5 -2 -16 5 -24 10 -13 9 -15 -5
-9 -11 4 -17 2 -15 -6 1 -7 -7 -11 -21 -9 -22 3 -23 1 -21 -60 2 -35 5 -67 8
-73 5 -9 9 -75 12 -192 1 -54 6 -62 27 -41 9 9 12 9 12 0 0 -7 -4 -12 -8 -12
-15 0 -8 -40 8 -41 10 0 11 -2 2 -6 -7 -3 -19 0 -26 6 -11 9 -15 6 -20 -12 -3
-15 -20 -30 -46 -42 -21 -10 -37 -22 -33 -28 4 -6 0 -8 -8 -5 -23 9 -49 -17
-55 -54 -5 -28 -1 -41 22 -67 l28 -34 141 7 c77 3 144 6 148 6 5 0 6 4 2 9 -3
5 0 13 6 17 7 4 9 3 5 -4 -8 -13 14 -28 23 -16 3 5 33 9 66 9 33 0 107 4 165
8 58 4 141 10 185 12 181 10 205 15 238 46 25 22 29 31 18 38 -11 7 -11 9 0
14 10 4 10 6 2 6 -7 1 -13 6 -13 12 0 5 4 8 9 5 5 -4 7 3 4 15 -7 27 -84 64
-95 46 -6 -9 -8 -9 -8 0 0 11 -37 29 -52 25 -5 -1 -9 4 -9 10 -1 7 -2 18 -3
23 -1 6 -6 66 -11 135 -5 69 -9 127 -10 130 -3 13 -18 246 -17 257 2 6 -2 14
-7 17 -5 3 -6 26 -4 50 3 25 2 74 -2 111 -6 58 -9 65 -25 60 -10 -3 -21 -1
-25 5 -4 6 -3 10 2 9 22 -4 43 2 43 12 0 7 -10 9 -25 5 -20 -5 -25 -3 -25 11
0 13 2 15 8 5 12 -19 28 23 31 80 1 39 -2 49 -19 58 -12 6 -28 9 -35 6 -8 -3
-17 -1 -20 4 -9 15 49 12 64 -3 11 -10 12 -6 6 23 -4 19 -7 45 -6 58 1 25 -19
26 -27 2 -3 -7 0 -10 5 -7 5 3 9 -8 9 -25 0 -25 -1 -28 -11 -14 -7 9 -15 13
-18 9 -4 -3 -7 -1 -7 6 0 8 7 11 15 7 12 -4 13 -2 3 13 -9 15 -8 22 4 34 9 9
18 13 22 10 3 -4 6 6 6 20 0 23 -4 27 -27 27 -22 0 -25 -2 -13 -10 13 -8 12
-10 -4 -10 -12 0 -16 5 -12 16 3 9 6 21 6 27 0 7 4 6 10 -3 12 -19 22 -8 26
29 3 22 -1 31 -14 34 -15 4 -15 5 2 6 17 1 18 7 11 69 -5 37 -8 78 -8 92 -1
14 -8 31 -16 37 -10 8 -12 15 -6 20 6 5 11 22 13 39 2 25 -2 33 -17 37 -20 5
-20 7 -6 34 25 47 13 165 -15 148 -5 -3 -6 5 -3 16 4 15 0 27 -12 35 -16 12
-17 14 -2 14 9 0 21 8 27 18 9 14 10 13 5 -8 -5 -23 -5 -23 6 -5 15 25 78 85
87 83 32 -9 72 37 56 63 -4 8 -3 9 5 5 18 -11 3 45 -18 65 -19 20 -61 34 -61
22 0 -5 -12 -10 -27 -11 -22 -1 -24 0 -13 8 17 11 -25 11 -135 0z"/>
<path d="M1463 2747 c5 -14 -26 -17 -39 -4 -12 11 -52 8 -60 -5 -5 -7 -3 -8 6
-3 9 5 10 2 5 -14 -4 -12 -2 -21 4 -21 6 0 8 -7 4 -16 -5 -15 -7 -15 -15 0 -5
9 -13 14 -19 11 -11 -8 -49 3 -49 14 0 4 7 8 15 8 8 0 12 -4 9 -9 -3 -4 2 -8
10 -8 8 0 17 4 20 8 6 10 -32 44 -42 38 -11 -6 -137 -19 -212 -21 -137 -3
-145 -4 -132 -17 15 -15 16 -38 2 -38 -6 0 -9 6 -8 13 2 7 -5 11 -17 9 -16 -2
-17 -1 -5 7 8 5 11 14 6 18 -4 4 -13 1 -19 -8 -10 -13 -15 -14 -24 -4 -12 13
-77 11 -113 -2 -8 -3 -60 -7 -114 -8 -66 -1 -101 -6 -104 -13 -2 -7 -7 -10
-12 -7 -14 9 -43 -35 -46 -70 -2 -33 0 -35 19 -29 18 5 20 4 10 -6 -9 -10 -6
-17 14 -33 21 -17 29 -18 45 -8 11 7 23 10 26 7 3 -3 0 -6 -6 -6 -7 0 -12 -4
-12 -10 0 -5 9 -10 19 -10 11 0 23 -5 26 -10 4 -6 10 -8 14 -5 9 5 21 -42 21
-82 0 -16 4 -22 13 -17 9 5 9 4 1 -5 -16 -17 -6 -48 17 -54 20 -5 27 -27 8
-27 -5 0 -7 5 -4 10 3 6 -1 10 -9 10 -19 0 -22 -36 -3 -43 7 -3 8 -6 1 -6 -7
-1 -10 -14 -8 -33 5 -36 12 -47 22 -32 4 6 15 10 24 9 11 -2 15 2 11 11 -3 8
-8 12 -12 10 -4 -3 -13 0 -21 6 -13 8 -12 9 2 5 9 -3 31 5 49 19 18 13 26 24
18 24 -8 0 -21 -6 -29 -12 -12 -11 -12 -10 -1 4 9 13 25 17 56 16 24 -1 41 -6
38 -11 -3 -5 1 -13 8 -18 10 -6 8 -9 -9 -9 -13 0 -21 4 -18 9 11 16 -18 18
-42 3 -17 -11 -22 -21 -18 -38 3 -13 2 -25 -3 -29 -5 -3 -9 -14 -8 -25 1 -10
5 -17 9 -14 4 3 4 12 1 22 -3 9 -3 14 1 11 4 -4 9 -18 12 -33 4 -22 1 -26 -19
-24 -19 2 -24 8 -23 27 1 13 -5 26 -12 28 -7 3 -10 -1 -6 -11 3 -9 1 -16 -6
-16 -6 0 -8 5 -5 10 3 6 1 10 -4 10 -13 0 -15 -86 -2 -94 4 -3 7 7 5 22 -4 26
-3 26 6 -3 6 -20 6 -31 0 -33 -6 -2 -10 -30 -10 -63 0 -56 5 -64 32 -60 4 0 5
-6 2 -14 -4 -8 -11 -15 -16 -15 -6 0 -5 -6 2 -15 9 -10 9 -15 1 -15 -6 0 -11
-5 -11 -11 0 -5 6 -7 13 -3 9 6 9 5 1 -7 -7 -8 -12 -26 -12 -41 0 -20 5 -26
19 -25 18 1 18 3 2 27 -13 20 -13 22 -2 13 12 -10 18 -10 27 -1 17 17 15 28
-5 21 -11 -4 -14 -3 -9 6 5 7 14 10 22 7 8 -3 14 0 14 7 0 8 3 7 9 -2 6 -10 3
-20 -12 -33 -22 -19 -22 -19 -1 -15 13 3 21 -1 21 -10 0 -8 -7 -11 -18 -8 -15
5 -17 1 -14 -26 3 -17 7 -40 10 -50 4 -11 2 -19 -5 -19 -16 0 -37 22 -43 46
-3 10 -5 -16 -5 -58 1 -43 4 -75 9 -73 4 3 10 1 14 -5 3 -5 1 -10 -4 -10 -7 0
-11 -24 -11 -57 0 -72 8 -105 24 -95 17 11 96 11 96 0 0 -6 -11 -8 -25 -6 -14
3 -28 1 -31 -3 -3 -5 -11 -9 -17 -9 -7 0 -6 4 3 10 13 9 13 10 -1 10 -8 0 -20
-5 -27 -12 -14 -14 -16 -42 -3 -34 14 9 20 -29 8 -50 -9 -16 -8 -17 4 -7 11 9
14 6 15 -18 1 -18 -4 -29 -12 -29 -8 0 -14 -5 -14 -11 0 -6 7 -9 15 -5 8 3 15
1 15 -4 0 -6 -8 -10 -17 -11 -15 0 -15 -2 2 -9 17 -7 18 -9 2 -9 -13 -1 -17
-8 -15 -31 1 -17 6 -30 10 -30 4 0 5 -6 2 -14 -4 -11 0 -13 15 -9 13 3 21 1
21 -6 0 -7 5 -9 12 -5 6 4 8 3 5 -3 -4 -6 -19 -9 -34 -7 -24 4 -25 3 -8 -5 17
-8 18 -10 3 -10 -13 -1 -18 -9 -18 -27 0 -23 2 -25 15 -14 9 7 18 10 22 6 3
-3 2 -6 -4 -6 -20 0 -24 -32 -6 -46 17 -12 17 -13 1 -19 -10 -4 -18 -12 -18
-17 0 -6 6 -8 13 -5 8 3 14 -1 14 -9 0 -9 -6 -13 -14 -9 -12 4 -13 -3 -9 -33
3 -20 6 -57 6 -82 0 -36 3 -41 11 -27 12 21 26 22 26 2 0 -8 -9 -17 -19 -21
-26 -8 -22 -25 5 -21 12 2 16 2 9 0 -7 -3 -10 -9 -7 -14 3 -5 -2 -6 -11 -2
-12 4 -15 3 -10 -6 5 -7 9 -36 10 -64 2 -60 -13 -81 -81 -111 -62 -28 -76 -47
-70 -97 6 -57 56 -97 58 -46 1 20 2 19 11 -5 8 -23 16 -28 44 -28 22 0 37 6
40 15 4 8 10 15 16 15 5 0 7 -4 4 -9 -10 -15 9 -16 153 -7 115 7 141 12 144
25 4 14 5 14 6 -1 1 -13 6 -15 29 -9 15 4 44 7 66 5 38 -3 38 -3 21 16 -10 11
-15 23 -12 27 4 3 7 1 7 -6 0 -17 43 -31 52 -17 6 8 8 8 8 -1 0 -17 97 -15
115 3 8 9 15 11 15 5 0 -6 15 -11 33 -10 27 0 29 2 12 9 -16 7 -17 9 -3 9 9 1
20 -3 23 -9 3 -5 17 -10 31 -10 23 0 31 10 17 23 -7 8 -8 30 -17 260 -3 87 -9
163 -12 168 -10 17 -18 124 -23 322 0 27 -4 46 -9 43 -4 -2 -16 2 -27 10 -12
9 -14 14 -5 14 9 0 7 5 -6 15 -10 8 -14 15 -7 15 6 0 15 -5 18 -10 3 -5 13
-10 21 -10 12 0 14 7 10 28 -3 15 -8 56 -11 92 -4 36 -11 67 -16 68 -5 2 -9 8
-9 13 0 6 4 8 8 5 5 -3 9 13 10 35 2 28 -2 41 -13 45 -8 3 -15 15 -15 26 0 18
2 19 17 7 16 -13 16 -11 -1 15 -10 16 -13 25 -7 21 14 -8 7 93 -8 108 -11 11
-34 0 -26 -14 4 -5 1 -9 -4 -9 -14 0 -14 6 0 31 6 11 17 18 24 15 10 -4 13 4
11 32 -1 20 -7 37 -13 37 -6 0 -15 3 -19 8 -4 4 0 7 8 7 17 0 32 26 20 34 -4
2 -6 34 -5 70 1 37 -2 64 -6 61 -5 -2 -7 20 -6 50 2 30 1 55 -1 55 -10 0 -54
-24 -54 -30 0 -4 -9 -10 -20 -13 -11 -3 -20 -1 -20 4 0 5 4 9 9 9 6 0 27 10
48 22 26 16 33 24 21 26 -18 3 -34 32 -18 32 6 0 10 -4 10 -10 0 -5 4 -10 8
-10 5 0 9 20 9 45 1 27 -3 42 -9 39 -6 -4 -5 2 1 14 16 30 14 35 -13 30 -14
-3 -31 -1 -38 3 -9 6 -3 9 17 10 17 1 33 1 37 0 4 0 4 12 2 27 -3 15 -6 35 -7
45 -1 9 -6 17 -12 17 -19 0 -26 -12 -14 -26 7 -8 6 -14 -2 -20 -8 -4 -9 -3 -5
4 10 17 -4 15 -24 -3 -15 -14 -18 -14 -23 -1 -4 10 -1 13 9 9 10 -4 17 2 21
16 3 11 9 21 14 21 5 0 6 7 3 15 -7 18 7 20 24 3 9 -9 12 -9 12 0 0 7 -5 12
-10 12 -16 0 11 37 37 51 17 9 20 15 11 21 -9 5 -6 8 8 8 33 0 85 21 78 31 -3
5 -10 6 -16 3 -10 -7 -28 13 -28 31 0 6 4 4 9 -3 4 -8 19 -12 32 -10 19 2 24
10 26 37 2 27 0 32 -13 27 -15 -6 -15 -4 -3 11 12 15 12 16 -3 10 -12 -4 -15
-2 -12 7 6 16 -43 28 -50 12 -2 -6 -5 -3 -5 7 -1 9 -6 17 -12 17 -6 0 -9 -6
-6 -13z"/>
<path d="M4973 2362 c-13 -2 -23 -8 -23 -13 0 -5 -6 -8 -12 -6 -8 1 -13 -8
-13 -23 0 -14 -8 -33 -17 -42 -20 -20 -24 -48 -7 -48 6 0 3 -7 -5 -16 -14 -14
-18 -25 -15 -51 0 -5 6 -7 14 -5 7 1 16 -2 20 -8 3 -5 18 -8 33 -5 15 3 21 2
14 -1 -6 -3 -9 -11 -6 -16 4 -7 2 -8 -4 -4 -7 4 -12 2 -12 -6 0 -7 -7 -2 -16
10 -14 20 -42 33 -30 14 3 -5 -1 -9 -9 -9 -8 0 -12 4 -9 9 3 4 1 8 -4 8 -5 0
-12 -9 -15 -21 -5 -18 -2 -20 17 -15 28 7 40 -3 25 -21 -14 -16 -49 -17 -49
-1 0 7 -8 1 -17 -12 -9 -14 -30 -37 -46 -51 -21 -18 -27 -31 -22 -40 8 -12 6
-12 -8 -1 -21 18 -43 6 -26 -14 9 -12 9 -13 -3 -9 -11 5 -15 0 -14 -17 1 -14
7 -22 16 -20 13 2 13 0 0 -10 -11 -9 -14 -28 -12 -65 3 -47 5 -52 34 -62 17
-6 34 -9 38 -6 5 3 11 -1 13 -7 4 -8 6 -7 6 4 1 9 -3 20 -9 23 -5 3 -10 1 -10
-4 0 -20 -17 -11 -36 17 -14 22 -15 25 -1 14 14 -12 16 -10 11 25 -4 40 0 36
10 -9 7 -29 29 -37 42 -16 4 6 3 8 -4 4 -6 -3 -14 -1 -18 5 -4 8 -3 9 4 5 7
-4 12 -2 12 5 0 7 3 9 7 6 7 -8 33 11 33 24 0 5 -7 6 -15 3 -12 -5 -12 -2 1
25 19 37 27 40 18 6 -4 -16 -2 -25 6 -25 6 0 9 4 6 8 -3 5 1 9 9 9 20 0 19 -2
-12 -33 -27 -25 -27 -26 -5 -21 12 3 19 1 16 -4 -3 -5 5 -14 18 -19 18 -8 18
-10 3 -6 -11 2 -28 7 -37 11 -14 6 -16 1 -11 -32 3 -21 6 -45 7 -53 3 -20 25
-58 26 -42 0 6 5 12 11 12 6 0 10 -10 8 -22 -1 -13 5 -38 12 -56 11 -27 18
-32 37 -27 20 5 22 4 10 -9 -7 -7 -16 -12 -20 -9 -5 2 -8 0 -8 -6 0 -5 10 -13
21 -16 16 -6 18 -9 8 -15 -11 -7 -11 -13 1 -34 7 -14 17 -26 22 -26 5 0 7 -4
4 -9 -3 -5 3 -11 13 -14 15 -4 18 -1 14 12 -3 9 -10 21 -15 28 -12 15 -1 36
13 27 6 -3 8 -13 5 -21 -5 -11 -2 -13 10 -9 13 5 14 3 6 -6 -7 -9 -7 -18 3
-31 20 -28 75 1 75 40 0 3 -9 3 -20 0 -11 -3 -18 -1 -14 4 3 5 14 9 24 9 16 0
19 7 16 46 -1 25 -8 49 -15 54 -9 5 -10 10 -2 14 18 11 13 26 -6 20 -17 -5
-17 -5 0 6 22 14 23 53 0 48 -9 -2 -19 -10 -21 -18 -5 -13 -3 -13 14 0 18 14
18 14 5 -2 -7 -10 -18 -15 -24 -11 -6 3 -7 1 -3 -5 4 -6 -2 -20 -13 -31 -16
-16 -21 -17 -25 -5 -7 19 2 41 21 48 11 5 12 10 5 19 -7 8 -8 18 -1 27 8 13 9
12 7 -2 -3 -18 0 -19 32 -11 11 3 20 10 20 15 0 5 -4 7 -9 4 -5 -3 -12 1 -15
10 -3 8 -2 12 4 9 6 -4 10 13 10 42 0 33 -3 43 -9 33 -6 -8 -7 -18 -5 -22 9
-14 -7 -8 -33 12 -18 14 -21 20 -10 20 9 0 19 -5 22 -11 5 -6 12 -4 20 8 10
14 11 21 2 32 -9 11 -9 13 0 8 18 -11 3 65 -16 81 -14 11 -14 11 2 6 13 -5 17
-1 17 16 0 17 -4 21 -17 16 -15 -5 -15 -4 1 9 11 8 14 15 7 15 -7 0 -9 5 -6
10 3 6 0 10 -7 10 -9 0 -9 3 -2 8 6 4 9 33 7 72 -2 36 -3 73 -4 83 0 9 -4 17
-9 17 -4 0 -11 7 -14 16 -4 12 -2 15 9 10 18 -7 20 17 4 62 -11 33 -46 51 -86
44z"/>
<path d="M5320 1483 c-35 -14 -47 -63 -15 -63 7 0 11 10 10 25 -2 14 1 25 7
25 5 0 6 -9 3 -22 -6 -18 -4 -20 11 -14 16 6 17 5 6 -6 -7 -7 -27 -13 -45 -13
-30 0 -32 -2 -32 -38 1 -22 -4 -37 -11 -37 -10 0 -25 -29 -28 -55 -1 -5 -7
-16 -14 -24 -7 -7 -10 -21 -7 -29 3 -9 3 -13 -1 -9 -8 8 -33 -22 -34 -42 0 -7
-11 -22 -25 -33 -28 -22 -33 -41 -8 -31 11 4 14 3 9 -5 -4 -7 -15 -12 -25 -12
-10 0 -32 -12 -48 -27 l-29 -27 25 -23 c14 -12 21 -23 14 -23 -6 0 -19 8 -28
17 -16 15 -19 15 -51 -2 -18 -10 -41 -25 -51 -35 -10 -9 -24 -15 -31 -12 -6 2
-12 0 -12 -5 0 -5 -10 -9 -22 -10 -11 -1 -24 -6 -27 -12 -3 -5 -20 -11 -36
-13 -30 -3 -30 -3 -31 -73 -1 -43 2 -73 10 -77 8 -6 7 -8 -2 -8 -7 0 -10 -4
-7 -10 9 -15 25 -12 25 6 0 8 4 13 8 10 5 -3 8 4 8 14 -1 11 4 18 9 17 6 -1 9
-5 7 -9 -1 -5 2 -8 7 -8 5 0 11 5 13 12 3 9 6 9 12 0 5 -8 -1 -15 -16 -21 -20
-8 -21 -10 -6 -16 10 -4 39 -5 65 -2 27 3 104 8 173 11 95 4 128 9 136 21 12
17 29 21 19 5 -3 -5 -1 -10 4 -10 6 0 11 6 11 13 0 8 3 9 8 1 4 -6 33 -11 65
-11 49 0 57 2 52 16 -5 13 -4 14 6 4 7 -7 27 -13 45 -13 25 0 32 4 29 18 -2 9
-4 21 -4 26 -1 5 -12 -1 -26 -14 l-24 -23 9 34 c6 19 10 36 10 38 0 2 6 1 14
-2 20 -8 15 141 -5 154 -10 6 -11 9 -1 9 13 0 16 30 6 78 -4 22 -14 33 -33 38
-14 4 -28 7 -31 6 -3 0 -6 8 -6 18 0 10 5 16 10 13 5 -4 7 1 3 11 -4 10 -7 23
-7 30 0 7 -10 23 -22 36 -18 20 -19 23 -4 17 10 -4 23 -7 29 -7 8 0 7 -3 -2
-9 -10 -7 -8 -12 10 -25 13 -9 19 -16 13 -16 -11 0 -11 -40 0 -58 13 -21 36
-13 36 12 0 23 -23 78 -31 73 -2 -1 1 3 8 9 27 24 1 66 -29 47 -7 -3 -8 -1 -4
6 4 6 16 9 27 6 17 -6 20 -2 18 32 -4 101 -52 152 -119 126z"/>
<path d="M2166 1339 c-47 -8 -73 -36 -81 -87 -4 -20 -17 -79 -29 -129 -19 -78
-21 -95 -10 -104 13 -11 18 -6 15 14 -2 12 27 8 35 -5 4 -6 3 -8 -3 -5 -6 4
-16 0 -23 -8 -9 -10 -17 -12 -30 -5 -15 8 -20 5 -28 -20 -7 -18 -7 -32 -1 -35
16 -10 10 -25 -11 -25 -11 0 -27 -12 -36 -27 -27 -43 -143 -152 -169 -159 -13
-3 -25 -15 -28 -26 -4 -14 -2 -18 9 -14 8 3 14 1 14 -4 0 -6 -5 -10 -10 -10
-7 0 -7 -6 0 -19 13 -25 13 -42 -1 -19 -5 9 -15 16 -22 14 -6 -1 -9 -1 -4 1
26 15 -11 52 -46 46 l-27 -5 6 -77 c7 -100 8 -103 36 -92 13 5 43 7 66 4 34
-3 42 -1 36 9 -6 10 -5 10 9 0 9 -8 20 -11 24 -9 9 6 215 21 251 19 13 -1 21
1 18 6 -2 4 32 6 76 6 43 -1 88 0 98 3 20 5 19 3 4 203 -3 47 -7 102 -8 122
-3 44 -12 56 -28 40 -7 -7 -17 -12 -23 -12 -5 0 -2 5 7 11 9 5 16 15 14 22 -1
6 -1 9 1 5 13 -23 22 -2 22 47 -1 40 -5 55 -15 55 -8 0 -14 5 -14 11 0 5 4 8
8 5 5 -3 8 22 8 54 0 32 -3 57 -7 54 -4 -2 -5 5 -2 15 4 16 1 19 -16 14 -14
-4 -23 1 -28 13 -5 11 -14 20 -21 22 -10 2 -10 -2 -2 -19 7 -11 9 -23 6 -27
-3 -3 -6 0 -6 7 0 7 -6 11 -14 8 -10 -4 -12 0 -8 15 4 16 2 19 -9 14 -8 -4 -4
0 8 9 56 42 67 55 55 67 -7 7 -12 8 -12 3 0 -6 -4 -5 -8 0 -4 7 -23 8 -46 4z"/>
</g>
</svg>
