<?xml version="1.0" standalone="no"?>
<!DOCTYPE svg PUBLIC "-//W3C//DTD SVG 20010904//EN"
 "http://www.w3.org/TR/2001/REC-SVG-20010904/DTD/svg10.dtd">
<svg version="1.0" xmlns="http://www.w3.org/2000/svg"
 width="246.000000pt" height="234.000000pt" viewBox="0 0 246.000000 234.000000"
 preserveAspectRatio="xMidYMid meet">
<metadata>
Created by potrace 1.15, written by Peter Selinger 2001-2017
</metadata>
<g transform="translate(0.000000,234.000000) scale(0.100000,-0.100000)"
fill="#00ff00" stroke="none">
<path d="M1643 1673 c-87 -37 -104 -59 -61 -78 17 -7 40 -52 90 -170 37 -88
65 -166 63 -172 -3 -7 -8 -20 -11 -28 -12 -29 27 -27 106 6 44 18 80 37 80 42
0 11 -170 420 -179 428 -3 4 -43 -9 -88 -28z"/>
<path d="M1432 1585 c-40 -18 -53 -29 -50 -42 2 -10 13 -19 25 -21 11 -2 28
-11 36 -20 19 -21 117 -258 117 -283 0 -9 -12 -31 -26 -48 -21 -25 -23 -34
-14 -51 14 -27 24 -25 54 10 50 60 46 94 -39 298 -36 86 -38 95 -26 127 22 61
5 67 -77 30z"/>
<path d="M1212 1492 c-92 -41 -119 -67 -78 -78 20 -5 34 -30 87 -154 34 -82
72 -159 85 -171 29 -27 100 -36 159 -19 57 16 59 46 4 74 -33 16 -165 322
-148 342 13 16 5 44 -13 43 -7 0 -50 -17 -96 -37z"/>
<path d="M910 1364 c-55 -20 -53 -18 -45 -43 3 -12 14 -21 24 -21 24 0 33 -12
61 -83 18 -45 20 -60 10 -72 -16 -20 -3 -55 21 -55 15 0 27 -17 49 -64 16 -36
38 -69 49 -75 57 -31 141 3 161 64 11 32 10 39 -4 54 -16 15 -18 15 -30 -2
-12 -15 -15 -13 -30 28 -20 50 -39 65 -85 65 l-31 0 20 33 c24 38 25 78 5 121
-28 58 -97 78 -175 50z"/>
<path d="M755 1301 c-33 -14 -66 -30 -72 -34 -20 -13 -15 -33 10 -44 34 -16
160 -318 151 -362 -5 -25 -3 -31 10 -31 29 0 195 72 201 87 7 20 -2 33 -24 33
-10 0 -23 6 -28 13 -6 6 -43 92 -84 190 -51 125 -78 177 -89 176 -8 -1 -42
-13 -75 -28z"/>
<path d="M440 1169 c-38 -16 -64 -34 -62 -41 2 -7 37 -94 78 -193 67 -159 74
-182 63 -202 -9 -18 -10 -26 -1 -35 8 -8 35 -2 104 27 114 46 149 80 91 87
-26 3 -33 16 -108 195 -44 106 -84 192 -90 192 -5 -1 -39 -14 -75 -30z"/>
</g>
</svg>
